<svg xmlns="http://www.w3.org/2000/svg" width="472" height="528" viewBox="0 0 472 528" version="1.1"><path d="M 391.453 147.250 C 387.500 151.500, 387.500 151.500, 391.750 147.547 C 395.702 143.871, 396.460 143, 395.703 143 C 395.540 143, 393.627 144.912, 391.453 147.250 M 335 149.500 C 332.571 151.975, 330.809 154, 331.084 154 C 331.359 154, 333.571 151.975, 336 149.500 C 338.429 147.025, 340.191 145, 339.916 145 C 339.641 145, 337.429 147.025, 335 149.500 M 222.250 150.689 C 223.213 150.941, 224.787 150.941, 225.750 150.689 C 226.713 150.438, 225.925 150.232, 224 150.232 C 222.075 150.232, 221.287 150.438, 222.250 150.689 M 240.762 150.707 C 242.006 150.946, 243.806 150.937, 244.762 150.687 C 245.718 150.437, 244.700 150.241, 242.500 150.252 C 240.300 150.263, 239.518 150.468, 240.762 150.707 M 225 152.279 C 219.775 152.708, 214.041 153.458, 212.258 153.946 C 210.321 154.477, 208.788 154.465, 208.449 153.917 C 208.137 153.413, 207.346 153.007, 206.691 153.015 C 205.957 153.025, 206.076 153.440, 207 154.096 C 208.148 154.912, 207.836 155.016, 205.666 154.541 C 203.607 154.090, 203.035 154.247, 203.573 155.117 C 204.092 155.958, 203.670 156.147, 202.155 155.751 C 200.968 155.440, 200.189 155.497, 200.424 155.877 C 200.659 156.257, 198.072 157.645, 194.676 158.962 C 191.279 160.279, 185.949 162.851, 182.832 164.678 C 176.687 168.279, 175.493 168.676, 176.601 166.750 C 177.019 166.024, 176.939 165.849, 176.410 166.333 C 175.910 166.792, 175.500 167.654, 175.500 168.250 C 175.500 168.846, 174.875 169.542, 174.111 169.796 C 173.185 170.105, 172.986 169.831, 173.515 168.975 C 174.040 168.127, 173.912 167.937, 173.138 168.415 C 172.494 168.813, 172.195 169.507, 172.474 169.958 C 172.753 170.409, 171.440 171.953, 169.557 173.389 C 165.825 176.235, 164.479 176.699, 165.602 174.750 C 165.998 174.063, 165.139 174.578, 163.692 175.895 C 162.245 177.213, 161.255 178.604, 161.492 178.987 C 161.729 179.370, 160.256 181.217, 158.221 183.092 C 154.799 186.242, 154.706 186.273, 156.996 183.500 C 158.763 181.359, 158.260 181.632, 155.236 184.453 C 152.906 186.627, 151 188.609, 151 188.858 C 151 189.107, 151.900 188.495, 153 187.500 C 155.788 184.977, 155.446 186.921, 152.516 190.250 C 150.031 193.074, 148.295 193.977, 149.633 191.750 C 150.143 190.901, 149.842 190.940, 148.692 191.872 C 146.900 193.326, 146.358 194.515, 147.931 193.543 C 148.443 193.226, 149.144 193.425, 149.490 193.984 C 149.835 194.543, 149.641 195.056, 149.059 195.125 C 148.477 195.194, 147.588 195.306, 147.083 195.375 C 146.579 195.444, 145.792 195.910, 145.333 196.410 C 144.849 196.939, 145.024 197.019, 145.750 196.601 C 147.800 195.422, 147.181 197.625, 144.176 202.200 C 137.536 212.312, 130.073 235.031, 130.016 245.309 C 130.005 247.175, 129.612 247.879, 128.845 247.405 C 128.136 246.966, 127.962 247.130, 128.395 247.830 C 128.782 248.456, 129.288 252.463, 129.521 256.734 C 129.753 261.005, 130.436 267.757, 131.038 271.738 C 131.640 275.719, 131.806 279.544, 131.406 280.238 C 131.006 280.932, 131.069 281.145, 131.544 280.712 C 132.020 280.278, 133.555 283.428, 134.955 287.712 C 136.580 292.684, 137.138 295.766, 136.500 296.235 C 135.877 296.693, 135.961 296.975, 136.724 296.985 C 138.349 297.005, 141.272 302.751, 140.386 304.184 C 139.930 304.922, 140.147 305.027, 141.015 304.490 C 141.985 303.891, 142.164 304.132, 141.681 305.388 C 141.319 306.332, 141.401 306.870, 141.864 306.584 C 142.943 305.917, 149.313 315.685, 148.576 316.877 C 148.271 317.370, 148.805 318.387, 149.761 319.137 C 151.356 320.387, 151.386 320.334, 150.126 318.500 C 149.371 317.400, 151.292 319.117, 154.395 322.316 C 157.498 325.515, 159.821 328.481, 159.557 328.908 C 159.293 329.334, 160.703 331.217, 162.689 333.092 C 164.675 334.966, 165.945 335.879, 165.511 335.120 C 164.970 334.174, 165.158 333.899, 166.111 334.245 C 166.875 334.523, 167.402 335.213, 167.282 335.779 C 167.162 336.345, 167.837 337.414, 168.782 338.154 C 170.363 339.393, 170.381 339.348, 169 337.587 C 167.018 335.060, 168.120 335.589, 176.771 341.313 C 180.770 343.959, 183.851 346.433, 183.618 346.812 C 183.385 347.190, 184.550 347.598, 186.207 347.718 C 187.863 347.838, 189.756 348.382, 190.412 348.927 C 192.034 350.273, 208.390 355.996, 210.670 356.015 C 212.167 356.028, 212.236 356.197, 211.052 356.947 C 210.098 357.550, 211.123 357.710, 214.052 357.416 C 216.553 357.164, 217.750 357.304, 216.786 357.734 C 214.793 358.625, 244.518 358.590, 247.500 357.698 C 248.600 357.369, 251.525 356.817, 254 356.470 C 260.381 355.577, 268.995 352.527, 278.174 347.913 C 282.525 345.725, 286.586 344.244, 287.197 344.622 C 287.853 345.027, 288.029 344.856, 287.627 344.205 C 286.834 342.922, 290.574 340.619, 292.009 341.506 C 292.553 341.842, 292.716 341.424, 292.382 340.552 C 291.118 337.260, 295.632 339.170, 300.750 344.092 C 303.637 346.870, 306 349.432, 306 349.787 C 306 350.141, 303.413 347.972, 300.250 344.966 C 294.500 339.500, 294.500 339.500, 299.920 345.204 C 302.901 348.341, 305.683 350.696, 306.101 350.437 C 307.449 349.604, 308.317 352.204, 308.151 356.581 C 308.055 359.120, 308.562 361.419, 309.404 362.261 C 310.312 363.169, 310.504 364.181, 309.939 365.088 C 309.294 366.123, 311.366 368.820, 317.708 375.199 C 322.465 379.983, 326.726 383.670, 327.177 383.391 C 328.159 382.784, 339 392.831, 339 394.348 C 339 394.930, 337.087 393.629, 334.750 391.456 C 331.112 388.075, 331.208 388.255, 335.418 392.709 C 338.123 395.569, 340.708 397.681, 341.161 397.400 C 341.615 397.120, 343.564 398.423, 345.493 400.296 C 349.369 404.060, 350.304 406.396, 346.750 403.436 C 345.512 402.405, 346.733 403.910, 349.462 406.781 C 352.192 409.651, 354.643 412, 354.909 412 C 355.175 412, 353.866 410.425, 352 408.500 C 350.134 406.575, 349.048 405, 349.585 405 C 350.773 405, 362 416.215, 362 417.401 C 362 417.865, 361.212 417.644, 360.250 416.911 C 359.288 416.177, 359.822 417.022, 361.437 418.788 C 363.052 420.555, 364.585 422, 364.842 422 C 365.099 422, 364.495 421.100, 363.500 420 C 360.916 417.144, 362.367 417.529, 367.091 420.951 C 373.263 425.422, 378.566 425.835, 385.684 422.402 C 388.883 420.858, 391.950 419.389, 392.500 419.135 C 393.050 418.882, 392.833 419.535, 392.017 420.587 C 390.558 422.469, 390.570 422.469, 392.767 420.595 C 395.128 418.581, 395.772 417.405, 393.870 418.580 C 393.185 419.004, 392.923 418.732, 393.204 417.889 C 393.458 417.125, 394.154 416.500, 394.750 416.500 C 395.346 416.500, 396.208 416.090, 396.667 415.590 C 397.161 415.050, 396.922 415.015, 396.080 415.504 C 394.972 416.147, 394.837 415.907, 395.465 414.414 C 399.555 404.685, 399.529 399.533, 395.362 393.392 C 392.551 389.249, 392.374 388.289, 394.750 390.060 C 395.712 390.778, 385.478 380.258, 372.008 366.682 C 358.537 353.107, 347.306 342, 347.049 342 C 346.793 342, 348.571 344.025, 351 346.500 C 353.429 348.975, 354.973 351, 354.431 351 C 353.235 351, 340 337.796, 340 336.602 C 340 336.136, 340.788 336.365, 341.750 337.110 C 343.175 338.214, 343.146 338.050, 341.595 336.233 C 339.643 333.945, 338.394 333.210, 339.500 335 C 340.309 336.309, 339.366 336.266, 336.769 334.876 C 335.615 334.259, 332.703 333.792, 330.298 333.841 C 327.762 333.892, 326.173 333.528, 326.515 332.976 C 326.839 332.452, 326.498 332.256, 325.757 332.540 C 325.016 332.824, 323.474 332.031, 322.329 330.778 C 321.185 329.525, 318.842 327.224, 317.124 325.665 C 315.406 324.106, 314 322.298, 314 321.647 C 314 319.487, 319.077 312.930, 320.208 313.629 C 320.851 314.026, 321.027 313.852, 320.631 313.212 C 319.758 311.799, 329.398 293.756, 330.494 294.751 C 330.949 295.163, 330.994 294.933, 330.596 294.241 C 329.594 292.501, 330.898 288.819, 332.227 289.640 C 332.855 290.029, 333.022 289.845, 332.624 289.200 C 331.630 287.592, 333.018 282.893, 334.261 283.661 C 334.884 284.046, 335.010 283.826, 334.573 283.118 C 333.447 281.297, 334.995 273.400, 336.140 275.119 C 336.747 276.029, 336.834 275.525, 336.395 273.643 C 335.943 271.701, 336.173 270.504, 337.115 269.908 C 337.877 269.425, 338.050 269.024, 337.500 269.015 C 336.885 269.006, 336.551 264.640, 336.632 257.682 C 336.765 246.238, 335.669 237.673, 332.607 226.214 C 331.683 222.757, 331.238 219.425, 331.618 218.809 C 332.059 218.095, 331.853 217.973, 331.047 218.471 C 330.108 219.051, 329.958 218.643, 330.458 216.875 C 330.828 215.569, 330.764 214.999, 330.316 215.608 C 329.867 216.218, 328.760 216.602, 327.856 216.462 C 326.952 216.323, 324.252 218.299, 321.856 220.854 C 317.500 225.500, 317.500 225.500, 322.250 221.042 C 324.863 218.590, 327 217.068, 327 217.661 C 327 218.990, 315.151 230.577, 314.074 230.299 C 312.440 229.878, 306.815 236.797, 307.290 238.644 C 307.693 240.208, 307.786 240.155, 307.884 238.309 C 308.055 235.075, 309.775 234.560, 309.706 237.764 C 309.674 239.269, 309.979 243.131, 310.384 246.346 C 310.892 250.379, 310.791 251.989, 310.060 251.537 C 309.389 251.123, 309 252.189, 309 254.441 C 309 256.398, 309.463 258, 310.028 258 C 311.156 258, 310.631 264.322, 308.835 272.356 C 308.086 275.709, 307.483 276.793, 306.890 275.856 C 306.417 275.110, 306.024 274.972, 306.015 275.550 C 306.007 276.127, 306.410 277.027, 306.910 277.550 C 308.633 279.348, 299.951 297.706, 297.960 296.475 C 297.508 296.196, 296.813 296.494, 296.415 297.138 C 295.963 297.869, 296.124 298.041, 296.845 297.595 C 298.648 296.482, 298.200 298.593, 296.308 300.128 C 294.867 301.296, 294.742 301.292, 295.463 300.095 C 296.025 299.162, 295.936 298.921, 295.198 299.378 C 294.587 299.755, 294.313 300.653, 294.589 301.372 C 294.865 302.091, 294.309 303.314, 293.354 304.090 C 292.231 305.001, 291.882 305.058, 292.367 304.250 C 293.676 302.071, 292.472 302.892, 289.437 306.246 C 286.612 309.369, 286.605 309.400, 289.250 307.072 C 290.762 305.741, 292 305.096, 292 305.639 C 292 307.227, 286.256 312.276, 285.195 311.620 C 284.104 310.946, 281.703 313.370, 282.586 314.253 C 283.133 314.800, 274.642 321.498, 270.500 323.787 C 267.034 325.704, 255.553 329.874, 252.040 330.493 C 250.185 330.820, 248.322 331.301, 247.898 331.563 C 245.559 333.008, 229.518 333.021, 220 331.584 C 211.062 330.236, 207.938 329.219, 199 324.750 C 193.225 321.862, 188.500 318.975, 188.500 318.333 C 188.500 317.692, 188.090 316.792, 187.590 316.333 C 187.061 315.849, 186.981 316.024, 187.399 316.750 C 188.832 319.241, 186.357 317.905, 181.233 313.422 C 178.355 310.905, 176 308.338, 176 307.720 C 176 307.101, 177.912 308.370, 180.250 310.542 C 182.909 313.011, 182.453 312.338, 179.034 308.745 C 173.660 303.096, 171.333 301.246, 174.095 304.816 C 174.868 305.815, 173.814 304.803, 171.753 302.566 C 168.022 298.518, 166.869 296.231, 169.250 297.601 C 169.976 298.019, 170.151 297.939, 169.667 297.410 C 169.208 296.910, 168.388 296.500, 167.845 296.500 C 166.713 296.500, 162.054 288.206, 160.260 283 C 159.597 281.075, 159.306 278.375, 159.614 277 C 160.002 275.264, 159.884 274.907, 159.226 275.833 C 156.571 279.571, 154.016 254.596, 155.909 243.404 C 157.573 233.570, 161.016 223.417, 162.105 225.135 C 162.580 225.886, 162.976 226.085, 162.985 225.579 C 162.993 225.072, 162.213 223.757, 161.250 222.657 C 160.287 221.556, 160.043 220.973, 160.707 221.361 C 161.462 221.801, 162.547 220.835, 163.602 218.783 C 169.189 207.912, 183.080 192.500, 187.290 192.500 C 188.519 192.500, 189.493 191.875, 189.495 191.083 C 189.498 190.304, 190.125 189.458, 190.889 189.204 C 191.815 188.895, 192.014 189.169, 191.485 190.025 C 190.960 190.873, 191.088 191.063, 191.862 190.585 C 192.506 190.187, 192.783 189.458, 192.478 188.965 C 191.954 188.116, 199.533 183.919, 206.842 181.011 C 209.669 179.886, 210.322 179.898, 211.077 181.090 C 211.825 182.272, 211.972 182.251, 211.985 180.963 C 211.993 180.117, 212.910 179.357, 214.022 179.273 C 215.197 179.185, 215.773 179.558, 215.398 180.164 C 215.044 180.738, 216.029 180.373, 217.588 179.354 C 219.147 178.334, 220.076 178.063, 219.652 178.750 C 219.158 179.552, 219.461 180, 220.500 180 C 221.390 180, 221.870 179.598, 221.566 179.107 C 220.674 177.664, 225.733 176.867, 234.410 177.083 C 243.190 177.301, 245.289 177.724, 244.435 179.105 C 244.131 179.597, 244.321 180, 244.858 180 C 245.394 180, 245.983 179.580, 246.167 179.066 C 246.914 176.973, 263.813 182.505, 273.837 188.124 C 279.077 191.061, 279.223 191.083, 281.837 189.335 C 283.302 188.356, 284.766 187.631, 285.090 187.724 C 285.415 187.817, 287.890 185.560, 290.590 182.709 C 293.291 179.857, 294.038 178.840, 292.250 180.449 C 287.931 184.337, 288.101 182.489, 292.505 177.694 C 294.427 175.601, 296 173.573, 296 173.187 C 296 172.520, 291.195 169.291, 282.596 164.178 C 267.198 155.024, 245.698 150.582, 225 152.279 M 376.453 163.250 C 372.500 167.500, 372.500 167.500, 376.750 163.547 C 380.702 159.871, 381.460 159, 380.703 159 C 380.540 159, 378.627 160.912, 376.453 163.250 M 318.924 166.750 C 316.500 169.500, 316.500 169.500, 319.250 167.076 C 320.762 165.742, 322 164.505, 322 164.326 C 322 163.541, 321.190 164.180, 318.924 166.750 M 230.250 178.716 C 231.762 178.945, 234.238 178.945, 235.750 178.716 C 237.262 178.487, 236.025 178.300, 233 178.300 C 229.975 178.300, 228.738 178.487, 230.250 178.716 M 368.439 210 C 368.439 225.125, 368.578 231.313, 368.748 223.750 C 368.917 216.188, 368.917 203.813, 368.748 196.250 C 368.578 188.688, 368.439 194.875, 368.439 210 M 223.870 191.071 C 220.773 191.526, 215.462 192.834, 212.069 193.977 C 208.675 195.120, 205.402 195.748, 204.795 195.373 C 204.078 194.930, 203.978 195.156, 204.510 196.015 C 205.109 196.985, 204.868 197.164, 203.612 196.681 C 202.456 196.238, 202.130 196.401, 202.612 197.181 C 203.095 197.962, 202.769 198.125, 201.612 197.681 C 200.668 197.319, 200.142 197.421, 200.442 197.907 C 201.033 198.862, 198.429 200.349, 196 200.444 C 195.175 200.476, 194.499 201.177, 194.497 202.001 C 194.496 202.826, 193.740 203.506, 192.818 203.513 C 191.896 203.520, 190.772 203.929, 190.321 204.423 C 189.852 204.936, 190.036 205.012, 190.750 204.601 C 193.145 203.223, 191.982 205.782, 189.463 207.432 C 188.068 208.346, 184.863 211.886, 182.341 215.297 C 179.818 218.709, 177.376 221.393, 176.913 221.262 C 176.451 221.131, 176.357 221.767, 176.706 222.676 C 177.128 223.777, 176.953 224.089, 176.181 223.612 C 175.445 223.157, 175.223 223.419, 175.574 224.331 C 175.877 225.121, 175.400 227.501, 174.514 229.622 C 172.712 233.933, 173.156 237.462, 175.618 238.407 C 177.940 239.298, 179.247 237.893, 183.023 230.454 C 184.852 226.851, 186.790 223.630, 187.329 223.297 C 187.930 222.925, 187.982 223.233, 187.463 224.095 C 186.742 225.292, 186.867 225.296, 188.308 224.128 C 190.140 222.642, 190.628 221.494, 189 222.500 C 187.311 223.544, 187.894 221.331, 189.692 219.872 C 191.150 218.689, 191.267 218.707, 190.537 220 C 190.072 220.825, 191.110 220.178, 192.845 218.563 C 194.580 216.948, 196 215.407, 196 215.139 C 196 214.871, 194.875 215.708, 193.500 217 C 192.125 218.292, 191 218.867, 191 218.278 C 191 217.324, 193.974 214.464, 199.608 210 C 204.576 206.064, 212.628 202.130, 211.392 204.242 C 210.987 204.934, 211.617 204.658, 212.791 203.629 C 213.965 202.600, 215.617 202.023, 216.463 202.347 C 217.308 202.672, 218 202.543, 218 202.062 C 218 201.581, 218.970 201.441, 220.156 201.751 C 221.756 202.169, 222.105 201.979, 221.508 201.013 C 220.891 200.015, 221.382 199.845, 223.601 200.285 C 225.211 200.604, 228.545 200.143, 231.099 199.249 C 234.597 198.023, 235.972 196.913, 236.841 194.611 C 237.639 192.495, 237.667 191.270, 236.932 190.542 C 236.200 189.816, 236.083 190.029, 236.546 191.245 C 237.160 192.859, 236.996 192.879, 234.355 191.501 C 232.785 190.682, 231.050 190.064, 230.500 190.128 C 229.950 190.192, 226.966 190.616, 223.870 191.071 M 211.500 192 C 210.181 192.567, 210.011 192.878, 211 192.914 C 211.825 192.945, 213.175 192.533, 214 192 C 215.828 190.819, 214.249 190.819, 211.500 192 M 137.162 210.543 C 135.487 214.220, 135.807 215.005, 137.618 211.662 C 138.464 210.100, 138.969 208.636, 138.741 208.407 C 138.512 208.179, 137.802 209.140, 137.162 210.543 M 305.924 222.750 C 303.500 225.500, 303.500 225.500, 306.250 223.076 C 307.762 221.742, 309 220.505, 309 220.326 C 309 219.541, 308.190 220.180, 305.924 222.750 M 311.500 233 C 310.505 234.100, 310.102 235, 310.604 235 C 311.107 235, 312.081 234.100, 312.768 233 C 313.455 231.900, 313.858 231, 313.663 231 C 313.469 231, 312.495 231.900, 311.500 233 M 291.924 237.750 C 289.500 240.500, 289.500 240.500, 292.250 238.076 C 293.762 236.742, 295 235.505, 295 235.326 C 295 234.541, 294.190 235.180, 291.924 237.750 M 69.286 244.500 C 69.294 247.250, 69.488 248.256, 69.718 246.736 C 69.947 245.216, 69.941 242.966, 69.704 241.736 C 69.467 240.506, 69.279 241.750, 69.286 244.500 M 185.523 248.977 C 182.827 251.714, 180.818 254.097, 181.060 254.271 C 181.302 254.445, 183.705 252.206, 186.401 249.294 C 192.597 242.601, 192.011 242.389, 185.523 248.977 M 367.195 250.500 C 367.215 252.150, 367.439 252.704, 367.693 251.731 C 367.947 250.758, 367.930 249.408, 367.656 248.731 C 367.382 248.054, 367.175 248.850, 367.195 250.500 M 338.195 251.500 C 338.215 253.150, 338.439 253.704, 338.693 252.731 C 338.947 251.758, 338.930 250.408, 338.656 249.731 C 338.382 249.054, 338.175 249.850, 338.195 251.500 M 187 261.500 C 189.987 264.525, 192.657 267, 192.932 267 C 193.207 267, 190.987 264.525, 188 261.500 C 185.013 258.475, 182.343 256, 182.068 256 C 181.793 256, 184.013 258.475, 187 261.500 M 128.195 263.500 C 128.215 265.150, 128.439 265.704, 128.693 264.731 C 128.947 263.758, 128.930 262.408, 128.656 261.731 C 128.382 261.054, 128.175 261.850, 128.195 263.500 M 164 288.642 C 164 289.179, 164.700 290.491, 165.555 291.559 C 167.022 293.389, 167.042 293.357, 165.920 291 C 164.462 287.939, 164 287.372, 164 288.642 M 191.500 319.570 C 193.934 321.505, 203.076 326.259, 203.513 325.817 C 203.686 325.643, 200.603 323.808, 196.663 321.740 C 192.724 319.673, 190.400 318.696, 191.500 319.570 M 161.948 331.444 C 163.268 332.850, 164.499 334, 164.683 334 C 165.584 334, 162.347 329.963, 161.045 329.464 C 160.221 329.148, 160.627 330.039, 161.948 331.444 M 358.022 354.500 C 362.895 360.105, 392.211 389.123, 392.604 388.730 C 392.781 388.552, 384.291 379.878, 373.736 369.453 C 363.181 359.029, 356.110 352.300, 358.022 354.500 M 143 355.275 C 143 355.426, 146.488 358.914, 150.750 363.025 C 158.500 370.500, 158.500 370.500, 151.025 362.750 C 144.082 355.552, 143 354.544, 143 355.275 M 222.269 359.693 C 223.242 359.947, 224.592 359.930, 225.269 359.656 C 225.946 359.382, 225.150 359.175, 223.500 359.195 C 221.850 359.215, 221.296 359.439, 222.269 359.693 M 317.969 374.469 C 322.603 379.127, 326.591 382.743, 326.830 382.503 C 327.319 382.014, 311.157 366, 310.174 366 C 309.828 366, 313.336 369.811, 317.969 374.469 M 306.232 378 C 306.919 379.100, 307.893 380, 308.396 380 C 308.898 380, 308.495 379.100, 307.500 378 C 306.505 376.900, 305.531 376, 305.337 376 C 305.142 376, 305.545 376.900, 306.232 378 M 317 388.313 C 317 388.485, 318.462 389.948, 320.250 391.563 C 323.500 394.500, 323.500 394.500, 320.563 391.250 C 317.825 388.221, 317 387.540, 317 388.313" stroke="none" fill="#226084" fill-rule="evenodd"/><path d="M 218.985 71.613 C 201.235 82.262, 172.360 96.426, 156 102.509 C 133.676 110.809, 130.647 111.846, 120 114.832 C 106.709 118.560, 95.268 121.175, 75.159 125.080 C 68.818 126.312, 68.818 126.312, 69.297 191.406 C 69.816 261.895, 70.295 269.232, 75.664 289 C 78.455 299.276, 85.974 320.046, 89.239 326.500 C 107.855 363.296, 130.850 388.482, 170.865 415.902 C 189.299 428.534, 228.138 449.932, 232.730 449.986 C 236.792 450.033, 269.905 433.021, 287.776 421.705 C 294.941 417.169, 313.881 403.112, 319.433 398.210 C 323.160 394.920, 323.160 394.920, 319.830 391.210 C 317.999 389.170, 314.411 385.700, 311.858 383.500 C 309.305 381.300, 306.641 378.488, 305.939 377.250 C 305.237 376.013, 304.176 375.016, 303.581 375.035 C 302.986 375.054, 296.485 379.553, 289.134 385.033 C 274.778 395.733, 258.339 405.864, 242.832 413.568 C 233.168 418.368, 233.168 418.368, 224.157 414.181 C 206.407 405.934, 175.890 385.597, 158.770 370.606 C 143.295 357.055, 126.313 335.480, 117.757 318.500 C 113.351 309.756, 106.374 291.776, 104.176 283.500 C 99.108 264.420, 98.606 257.100, 98.551 201.603 C 98.500 149.706, 98.500 149.706, 104.500 148.273 C 129.561 142.286, 137.821 139.914, 155 133.768 C 165.725 129.932, 179.134 124.606, 184.797 121.931 C 190.461 119.257, 197.886 115.831, 201.297 114.318 C 204.709 112.805, 213.270 108.236, 220.323 104.164 C 234.838 95.784, 231.423 95.414, 252.741 107.682 C 257.824 110.607, 262.169 113, 262.397 113 C 262.625 113, 268.446 115.699, 275.331 118.997 C 291.450 126.718, 321.791 138.258, 336.500 142.262 C 341.500 143.623, 341.500 143.623, 332.416 153.061 C 318.228 167.803, 313.463 172.837, 304.676 182.363 C 300.179 187.237, 293.800 194.004, 290.500 197.400 C 287.200 200.796, 273.520 215.258, 260.100 229.537 C 246.680 243.817, 234.191 257.068, 232.348 258.985 C 228.997 262.470, 228.997 262.470, 215.235 248.735 C 207.667 241.181, 201.031 235, 200.489 235 C 199.179 235, 182.052 253.188, 182.023 254.611 C 181.991 256.174, 227.909 303, 229.474 303 C 230.180 303, 233.625 299.945, 237.129 296.211 C 240.633 292.476, 250.005 282.464, 257.956 273.961 C 270.839 260.183, 280.500 249.913, 312.470 216.012 C 317.403 210.780, 324.153 203.601, 327.470 200.057 C 330.786 196.514, 334.637 192.464, 336.027 191.057 C 337.416 189.651, 349.534 176.800, 362.955 162.500 C 376.375 148.200, 389.386 134.373, 391.868 131.773 C 394.349 129.173, 396.142 126.809, 395.853 126.519 C 395.563 126.229, 392.665 125.523, 389.413 124.948 C 360.102 119.774, 315.577 106.041, 292.500 95.057 C 274.115 86.306, 260.594 79.352, 253.500 74.998 C 249.100 72.298, 245.141 70.069, 244.702 70.044 C 244.263 70.020, 241.483 68.452, 238.525 66.559 C 233.145 63.118, 233.145 63.118, 218.985 71.613 M 388.942 150.780 C 366.235 174.307, 368.583 168.413, 368.849 201.223 C 369.102 232.287, 368.090 252.075, 365.479 267.124 C 363.129 280.668, 355.644 303.752, 349.877 315.244 C 344.833 325.297, 344.833 325.297, 354.648 335.148 C 360.046 340.567, 364.987 345, 365.627 345 C 366.876 345, 372.256 337.121, 373.822 333 C 374.344 331.625, 376.432 327.125, 378.461 323 C 386.558 306.545, 393.024 283.161, 395.993 259.598 C 396.965 251.889, 397.602 144.269, 396.682 143.349 C 396.523 143.190, 393.040 146.534, 388.942 150.780 M 219.889 151.135 C 215.704 151.615, 210.529 152.673, 208.389 153.485 C 204.500 154.961, 204.500 154.961, 208 154.485 C 209.925 154.223, 214.650 153.538, 218.500 152.962 C 228.728 151.434, 244.641 151.703, 253.642 153.556 C 262.394 155.359, 276.384 160.480, 282.500 164.119 C 291.094 169.233, 296 172.514, 296 173.146 C 296 173.776, 293.684 176.599, 286.086 185.228 C 280.885 191.135, 279.687 191.487, 274.714 188.573 C 268.959 185.200, 257.361 180.478, 252.672 179.598 C 250.574 179.205, 248.215 178.636, 247.429 178.334 C 246.643 178.033, 246 178.284, 246 178.893 C 246 179.502, 246.901 180, 248.002 180 C 251.531 180, 267.300 185.945, 273.382 189.568 C 276.621 191.498, 279.617 192.947, 280.040 192.788 C 281.557 192.220, 298 174.176, 298 173.080 C 298 171.752, 286.993 164.509, 278.447 160.213 C 270.680 156.308, 255.967 152.330, 244.500 151.034 C 234.312 149.882, 230.677 149.897, 219.889 151.135 M 194.719 157.435 C 178.987 162.988, 158.333 179.358, 146.696 195.500 C 138.608 206.719, 130.977 225.531, 129.152 238.750 C 127.619 249.851, 128.912 276.856, 131.107 279.592 C 131.588 280.193, 131.748 280.918, 131.462 281.205 C 130.794 281.873, 136.004 296, 136.918 296 C 137.296 296, 136.389 292.269, 134.903 287.709 C 129.250 270.368, 128.146 250.813, 131.842 233.500 C 134.088 222.981, 139.426 209.434, 144.176 202.200 C 145.729 199.835, 147 197.495, 147 197 C 147 196.504, 147.787 195.641, 148.750 195.080 C 149.713 194.519, 150.159 194.047, 149.742 194.030 C 148.016 193.961, 162.897 178.358, 169.575 173.235 C 176.343 168.043, 188.029 161.520, 196.500 158.206 C 205.890 154.532, 204.567 153.960, 194.719 157.435 M 222.655 177.843 C 221.641 178.255, 226.244 178.593, 232.885 178.593 C 239.525 178.593, 244.470 178.291, 243.873 177.922 C 242.365 176.990, 224.913 176.925, 222.655 177.843 M 212 180.213 C 212 181.319, 214.760 181.197, 215.463 180.061 C 215.782 179.544, 215.134 179.190, 214.022 179.273 C 212.910 179.357, 212 179.780, 212 180.213 M 201.500 183.377 C 184.214 191.539, 171.498 203.419, 163.602 218.783 C 162.563 220.805, 161.451 221.805, 160.707 221.386 C 159.815 220.884, 159.789 221.021, 160.606 221.909 C 161.421 222.795, 161.124 224.739, 159.476 229.306 C 154.708 242.519, 153.779 261.686, 157.359 273 C 158.783 277.500, 158.783 277.500, 158.141 272 C 157.302 264.801, 157.318 243.766, 158.168 237.855 C 159.832 226.274, 169.655 209.410, 180.974 198.700 C 189.369 190.757, 193.692 187.981, 203.239 184.402 C 207.496 182.806, 210.983 181.162, 210.989 180.750 C 211.009 179.368, 208.548 180.049, 201.500 183.377 M 221.324 190.045 C 201.124 194.039, 185.432 205.604, 175.255 224 C 170.945 231.789, 170.352 235.352, 172.935 237.935 C 177.152 242.152, 180.050 240.314, 184.703 230.467 C 186.272 227.149, 188.528 223.068, 189.717 221.398 C 192.522 217.459, 205.079 207.006, 208.975 205.369 C 210.639 204.669, 212 203.859, 212 203.570 C 212 202.597, 202.504 207.307, 201 209.025 C 200.725 209.339, 198.988 210.653, 197.140 211.944 C 193.068 214.791, 186.078 224.097, 182.462 231.488 C 179.404 237.738, 177.893 239.280, 175.665 238.425 C 172.987 237.397, 172.765 234.244, 174.957 228.385 C 181.213 211.663, 197.843 197.386, 216.679 192.564 C 225.313 190.354, 233.536 190.109, 235.434 192.006 C 237.695 194.266, 236.333 197.598, 232.665 198.778 C 229.500 199.796, 229.500 199.796, 232.715 199.898 C 237.818 200.060, 239.771 194.771, 236 191 C 233.838 188.838, 229.017 188.524, 221.324 190.045 M 318.208 225.308 C 307.916 236.500, 307.916 236.500, 308.559 243.500 C 308.912 247.350, 309.637 250.950, 310.169 251.500 C 311.031 252.390, 310.595 244.884, 309.423 238.644 C 309.189 237.402, 311.861 233.932, 317.507 228.144 C 322.145 223.390, 326.569 218.631, 327.338 217.570 C 328.719 215.665, 328.750 215.665, 329.782 217.593 C 333.482 224.506, 336.792 243.880, 336.632 257.682 C 336.559 263.907, 336.837 269, 337.250 269 C 338.793 269, 338.531 248.379, 336.864 238.500 C 335.729 231.781, 330.089 213.968, 329.124 214.058 C 328.781 214.089, 323.869 219.152, 318.208 225.308 M 309 262.340 C 309 274.564, 300.052 295.289, 290.070 306.182 C 284.221 312.565, 272.841 321.154, 265.980 324.363 C 257.749 328.213, 248.426 330.183, 235.908 330.717 C 224.538 331.202, 222.326 330.999, 213.131 328.631 C 207.530 327.188, 200.815 324.927, 198.209 323.606 C 189.178 319.029, 176.655 308.362, 171.671 301 C 165.984 292.599, 164.740 290.407, 162.326 284.528 C 159.647 278.004, 157.642 276.043, 159.965 282.218 C 164.616 294.580, 175.574 309.455, 185.425 316.778 C 195.768 324.467, 208.223 329.783, 220.135 331.594 C 229.532 333.022, 245.566 333.004, 247.898 331.563 C 248.322 331.301, 250.185 330.820, 252.040 330.493 C 253.894 330.166, 258.167 328.797, 261.534 327.450 C 264.902 326.102, 268.011 325, 268.444 325 C 269.511 325, 278.300 318.585, 284.840 313.033 C 294.231 305.060, 305.676 287.545, 307.407 278.496 C 307.618 277.394, 308.250 274.694, 308.812 272.496 C 310.467 266.028, 311.128 258, 310.006 258 C 309.453 258, 309 259.953, 309 262.340 M 334.219 279.210 C 331.854 289.166, 324.719 304.782, 318.095 314.500 C 315.845 317.800, 314.004 321.024, 314.002 321.665 C 314.001 322.306, 315.376 324.106, 317.059 325.665 C 318.741 327.224, 321.420 329.721, 323.012 331.214 C 325.299 333.358, 326.828 333.910, 330.289 333.841 C 332.698 333.793, 335.532 334.214, 336.585 334.779 C 340.085 336.653, 394.767 391.649, 396.540 395.078 C 399.303 400.420, 398.919 407.577, 395.537 413.771 C 393.087 418.258, 391.723 419.503, 386.366 422.140 C 381.047 424.759, 379.385 425.135, 375.619 424.570 C 373.158 424.201, 369.450 422.634, 367.333 421.067 C 361.981 417.109, 309.657 365.009, 310.344 364.323 C 310.652 364.014, 310.222 363.079, 309.388 362.245 C 308.553 361.410, 307.945 359.326, 308.036 357.614 C 308.341 351.909, 308.035 351.301, 301.750 345.139 C 296.195 339.693, 292 337.416, 292 339.848 C 292 341.084, 271.519 351.498, 264.500 353.830 C 258.260 355.903, 255.461 356.454, 243.115 358.038 C 236.078 358.941, 218.303 358.042, 211.373 356.433 C 206.426 355.284, 191.545 349.932, 190.550 348.944 C 190.027 348.425, 188.922 348, 188.094 348 C 187.266 348, 181.619 344.641, 175.544 340.536 C 160.226 330.183, 148.240 316.934, 140.364 301.651 C 138.990 298.983, 137.630 297.037, 137.342 297.325 C 135.935 298.731, 149.693 319.581, 156.971 327.074 C 161.782 332.027, 174.459 342.172, 179.567 345.157 C 200.319 357.283, 225.020 362.105, 248.415 358.597 C 265.327 356.061, 269.349 354.618, 287.500 344.572 C 288.600 343.963, 290.789 342.600, 292.364 341.543 C 295.228 339.621, 295.228 339.621, 301.114 345.711 C 306.906 351.703, 307 351.893, 307 357.545 C 307 363.290, 307 363.290, 317.250 373.727 C 342.898 399.845, 365.413 421.691, 368.799 423.745 C 374.647 427.292, 382.458 426.898, 388.536 422.750 C 395.663 417.886, 399.283 412.230, 399.795 405.160 C 400.120 400.663, 399.753 398.453, 398.176 395.421 C 395.576 390.421, 339.473 334.456, 335.627 333.025 C 334.046 332.437, 331.346 332.215, 329.627 332.531 C 326.826 333.047, 325.902 332.500, 320.770 327.294 C 315.040 321.482, 315.040 321.482, 320.994 312.592 C 324.269 307.703, 327.702 301.632, 328.623 299.101 C 329.545 296.571, 331.095 292.612, 332.069 290.304 C 333.994 285.742, 337.482 271.149, 336.809 270.476 C 336.580 270.247, 335.415 274.177, 334.219 279.210" stroke="none" fill="#14385a" fill-rule="evenodd"/></svg>