<?xml version="1.0" encoding="UTF-8"?>
<svg version="1.1" xmlns="http://www.w3.org/2000/svg" width="505" height="565">
<path d="M0 0 C166.65 0 333.3 0 505 0 C505 186.45 505 372.9 505 565 C338.35 565 171.7 565 0 565 C0 378.55 0 192.1 0 0 Z " fill="#FDFEFE" transform="translate(0,0)"/>
<path d="M0 0 C3.11110845 1.39741101 5.97393816 3.15074626 8.86328125 4.94921875 C10.21251078 5.77252513 11.56280666 6.59408606 12.9140625 7.4140625 C13.60838379 7.8354248 14.30270508 8.25678711 15.01806641 8.69091797 C24.83434895 14.58617784 34.89627949 19.9735481 45.1796875 25.00390625 C47.65511896 26.21604312 50.08348355 27.46829369 52.515625 28.76953125 C86.64923846 46.79811383 125.99295436 59.22029764 164.12304688 64.40649414 C167.25441558 64.97483449 170.12107326 65.87567209 173.11328125 66.94921875 C170.98037615 70.84800307 168.56135124 73.68779744 165.36328125 76.76171875 C162.32127881 79.73778183 159.37311158 82.70970362 156.61328125 85.94921875 C153.91716984 89.1031604 151.0651115 92.03295272 148.11328125 94.94921875 C145.18209934 97.84513833 142.34924951 100.75164446 139.67578125 103.88671875 C136.37184512 107.75302699 132.78632523 111.30556505 129.16918945 114.8737793 C125.85279176 118.16271673 122.75336675 121.57083288 119.72265625 125.12109375 C117.54834921 127.59093767 115.20591606 129.86714314 112.859375 132.171875 C111.04850482 134.01515449 109.36006771 135.92744674 107.67578125 137.88671875 C104.63648474 141.41556638 101.40311278 144.67926902 98.0859375 147.9453125 C95.53990296 150.53168026 93.19306568 153.26457155 90.828125 156.015625 C89.15323826 157.90416472 87.41380538 159.68077523 85.61328125 161.44921875 C83.19995408 163.81964232 80.94056272 166.25658183 78.73828125 168.82421875 C76.1469392 171.83389405 73.44073342 174.66010491 70.61328125 177.44921875 C67.19229847 180.82389381 64.00553678 184.31166486 60.8828125 187.9609375 C58.29260053 190.87135228 55.51172037 193.57466965 52.71484375 196.28515625 C51.02699401 197.87344608 51.02699401 197.87344608 50.11328125 199.94921875 C49.45328125 199.94921875 48.79328125 199.94921875 48.11328125 199.94921875 C47.86964844 200.5215625 47.62601563 201.09390625 47.375 201.68359375 C45.88810827 204.35355413 44.13244217 206.08750882 41.92578125 208.19921875 C39.04827008 211.00799955 36.28339124 213.82588131 33.67578125 216.88671875 C30.16858685 220.97980178 26.35602967 224.72146579 22.5234375 228.5078125 C19.84473593 231.22124602 17.36720007 234.05698898 14.890625 236.953125 C12.17449517 240.00354773 9.24293276 242.8282074 6.3359375 245.6953125 C3.10077571 248.97595987 0.09101107 252.43530607 -2.88671875 255.94921875 C-6.13199856 255.36713032 -7.76250416 254.44607195 -10.07543945 252.11694336 C-10.6731868 251.52219711 -11.27093414 250.92745087 -11.88679504 250.31468201 C-12.840019 249.34293785 -12.840019 249.34293785 -13.8125 248.3515625 C-14.47831589 247.68387344 -15.14413177 247.01618439 -15.8301239 246.32826233 C-17.23979467 244.91186809 -18.64586239 243.49188016 -20.04858398 242.06860352 C-22.17389443 239.91241104 -24.30942761 237.76681167 -26.44726562 235.62304688 C-27.81962966 234.24150027 -29.19139328 232.85935693 -30.5625 231.4765625 C-31.19190994 230.84290268 -31.82131989 230.20924286 -32.46980286 229.55638123 C-36.23101614 225.73565576 -39.81991642 221.80817201 -43.31121826 217.73899841 C-46.13705587 214.52882697 -49.22933155 211.6003069 -52.31835938 208.64453125 C-53.54351366 207.4482641 -54.7199475 206.20249564 -55.88671875 204.94921875 C-55.88671875 204.28921875 -55.88671875 203.62921875 -55.88671875 202.94921875 C-54.41796875 201.5390625 -54.41796875 201.5390625 -52.38671875 199.88671875 C-48.43444641 196.54410544 -45.085819 192.91179178 -41.74609375 188.96484375 C-39.93019195 186.99634516 -38.07685234 185.48037409 -35.88671875 183.94921875 C-31.69045966 185.5869992 -28.8999509 188.68245057 -25.80859375 191.83203125 C-25.23715637 192.40629852 -24.66571899 192.9805658 -24.07696533 193.57223511 C-22.2587893 195.40157685 -20.44770383 197.23776068 -18.63671875 199.07421875 C-17.40280546 200.31816649 -16.16843553 201.56166145 -14.93359375 202.8046875 C-11.91265132 205.84764242 -8.89804783 208.89675129 -5.88671875 211.94921875 C1.62271932 208.40208646 6.90793355 201.26311641 12.234375 195.046875 C14.43955421 192.58495975 16.76214802 190.27198235 19.11328125 187.94921875 C22.0651115 185.03295272 24.91716984 182.1031604 27.61328125 178.94921875 C31.09660667 174.87438525 34.89146833 171.15628883 38.703125 167.390625 C41.38182657 164.67719148 43.85936243 161.84144852 46.3359375 158.9453125 C48.99023081 155.96433694 51.84316762 153.19634392 54.70703125 150.41796875 C57.33223158 147.7245814 59.779147 144.91245063 62.24365234 142.07275391 C65.3032189 138.59768079 68.49021994 135.24596618 71.67578125 131.88671875 C73.09140603 130.38826661 74.5067657 128.88956397 75.921875 127.390625 C76.62554199 126.64570801 77.32920898 125.90079102 78.05419922 125.13330078 C82.27325744 120.65811762 86.463349 116.1559194 90.65625 111.65625 C93.05031713 109.08702392 95.44933005 106.52253028 97.8515625 103.9609375 C103.70912227 97.71026834 109.54378532 91.46047203 115.11328125 84.94921875 C114.05101318 84.70268555 114.05101318 84.70268555 112.96728516 84.45117188 C104.98147846 82.53426658 97.24609987 80.13673366 89.48828125 77.44921875 C88.86655029 77.23434814 88.24481934 77.01947754 87.60424805 76.7980957 C74.17377607 72.13708238 61.08631481 66.7646432 48.11328125 60.94921875 C47.19111816 60.53704102 46.26895508 60.12486328 45.31884766 59.70019531 C30.13577835 52.84973576 14.98905447 45.19973423 1.11328125 35.94921875 C-2.48456892 36.31248848 -5.35155935 38.20392694 -8.4453125 39.9765625 C-10.09080078 40.91000488 -10.09080078 40.91000488 -11.76953125 41.86230469 C-12.34864258 42.19258667 -12.92775391 42.52286865 -13.52441406 42.86315918 C-53.72972763 65.72815879 -98.98499176 84.48350649 -144.88671875 91.94921875 C-144.9100016 104.5808803 -144.92771449 117.21253666 -144.93853092 129.84421539 C-144.94372512 135.71109277 -144.95075905 141.57795535 -144.9621582 147.44482422 C-144.97311119 153.11827233 -144.9790216 158.79170631 -144.98159599 164.46516418 C-144.98342806 166.61782554 -144.98700505 168.77048622 -144.99244881 170.92314148 C-145.09741625 214.19523609 -137.55201523 256.95409549 -111.88671875 292.94921875 C-111.1803125 293.95855469 -110.47390625 294.96789062 -109.74609375 296.0078125 C-104.04780567 303.88907785 -97.61808265 310.95584912 -90.88671875 317.94921875 C-90.41443848 318.44341309 -89.9421582 318.93760742 -89.45556641 319.44677734 C-83.00407765 326.16962209 -76.24782794 332.24271392 -68.88671875 337.94921875 C-68.30293457 338.40409668 -67.71915039 338.85897461 -67.11767578 339.32763672 C-53.40686803 349.96710978 -39.09035026 359.24036131 -24.01171875 367.82421875 C-23.07320068 368.35974365 -22.13468262 368.89526855 -21.16772461 369.44702148 C-16.51154126 372.06102635 -11.80735635 374.56115124 -7.00390625 376.89453125 C-6.1413623 377.31492676 -5.27881836 377.73532227 -4.39013672 378.16845703 C1.80984044 380.10209531 7.69621943 375.92613976 13.11328125 373.19921875 C14.56347656 372.47037476 14.56347656 372.47037476 16.04296875 371.72680664 C36.51648198 361.24908741 55.03604358 348.06267673 73.11328125 333.94921875 C77.46002316 336.03970692 80.91972167 338.42640136 83.92578125 342.26171875 C86.46992858 345.38738547 89.35028054 347.71130031 92.50390625 350.203125 C94.11328125 351.94921875 94.11328125 351.94921875 94.11328125 355.94921875 C79.47736518 374.3938966 51.16239384 387.70018753 30.76416016 398.54003906 C28.2549176 399.87392634 25.7517275 401.21849051 23.25 402.56640625 C19.78800221 404.42649533 16.31410542 406.26103368 12.82275391 408.06542969 C11.31543181 408.84470789 9.81352675 409.63444497 8.3125 410.42578125 C7.54550781 410.80476563 6.77851563 411.18375 5.98828125 411.57421875 C5.38757813 411.87585938 4.786875 412.1775 4.16796875 412.48828125 C-2.26470861 413.93135336 -8.09167748 410.76845989 -13.69921875 408.01171875 C-14.5288916 407.60985352 -15.35856445 407.20798828 -16.21337891 406.79394531 C-37.44636782 396.38474923 -57.95608866 384.12981314 -76.88671875 369.94921875 C-77.42699707 369.54638672 -77.96727539 369.14355469 -78.52392578 368.72851562 C-85.89417611 363.21666027 -93.00256506 357.43270291 -99.984375 351.4375 C-101.72976463 349.94111615 -103.48472308 348.45564351 -105.2578125 346.9921875 C-106.836558 345.68662533 -108.36925137 344.32552637 -109.88671875 342.94921875 C-109.88671875 342.28921875 -109.88671875 341.62921875 -109.88671875 340.94921875 C-110.46292969 340.706875 -111.03914063 340.46453125 -111.6328125 340.21484375 C-138.34000444 325.21808432 -159.052369 276.77261252 -166.95507812 249.22509766 C-167.97589978 245.33284487 -168.92596316 241.43361845 -169.82421875 237.51171875 C-170.09451904 236.34866211 -170.36481934 235.18560547 -170.64331055 233.98730469 C-175.3706492 211.92738925 -176.33390862 189.75517236 -176.19090056 167.26412344 C-176.17171761 163.71818534 -176.17035151 160.17223321 -176.16682434 156.62625122 C-176.15762274 149.95821711 -176.13317631 143.29033646 -176.10277587 136.62236893 C-176.06885369 129.01129183 -176.0526524 121.40020608 -176.03768957 113.7890718 C-176.00661099 98.1756996 -175.95409112 82.56247921 -175.88671875 66.94921875 C-175.11880383 66.80970039 -174.3508889 66.67018204 -173.55970383 66.52643585 C-170.03377246 65.88424761 -166.50858684 65.23805052 -162.98339844 64.59179688 C-161.77561737 64.37243469 -160.5678363 64.15307251 -159.32345581 63.92706299 C-150.49006286 62.30355571 -141.8057532 60.38133994 -133.14746094 58.00146484 C-131.09221562 57.43699606 -129.03296772 56.88940986 -126.97265625 56.34375 C-103.41428762 50.03917104 -80.43754457 41.45644794 -58.36523438 31.10839844 C-55.82145756 29.91869667 -53.26869994 28.74991829 -50.71484375 27.58203125 C-34.50505107 20.09746136 -18.57629565 11.78251982 -4.1640625 1.1796875 C-1.88671875 -0.05078125 -1.88671875 -0.05078125 0 0 Z " fill="#17395C" transform="translate(249.88671875,68.05078125)"/>
<path d="M0 0 C0.84175781 0.73476562 1.68351563 1.46953125 2.55078125 2.2265625 C-1.21106709 7.70811294 -5.45311661 12.52861119 -10.07421875 17.2890625 C-10.6364917 17.88549561 -11.19876465 18.48192871 -11.77807617 19.09643555 C-13.42578125 20.76171875 -13.42578125 20.76171875 -16.44921875 23.2265625 C-20.60936134 22.72773582 -24.09060543 20.35401451 -27.69921875 18.3515625 C-40.86720136 11.22735836 -53.06178259 8.86563317 -68.07421875 8.9765625 C-69.12867188 8.96882813 -70.183125 8.96109375 -71.26953125 8.953125 C-92.77637982 9.00635977 -111.30435631 18.13550064 -126.44921875 33.2265625 C-127.06152344 33.81566406 -127.67382812 34.40476563 -128.3046875 35.01171875 C-142.48157096 49.77254707 -148.89758711 70.53738243 -148.74511719 90.59838867 C-148.11605661 114.68661092 -138.76867738 134.84853277 -121.4375 151.65234375 C-103.44730412 167.14978047 -81.65973922 172.5508821 -58.44189453 171.50048828 C-37.14007456 169.5506888 -17.32299093 158.09622529 -3.51171875 142 C0.41141522 136.72457364 3.47721732 131.02442173 6.55078125 125.2265625 C6.97359375 124.50726563 7.39640625 123.78796875 7.83203125 123.046875 C12.70412493 114.44689147 13.85658275 104.41937374 13.5625 94.703125 C13.53081474 93.6173819 13.53081474 93.6173819 13.49848938 92.50970459 C13.39790254 89.53374855 13.27780188 86.56048768 13.11206055 83.58740234 C12.45283659 70.97889113 12.45283659 70.97889113 15.2265625 66.55200195 C17.23103561 64.55376971 19.28646792 62.91667576 21.55078125 61.2265625 C22.78926911 59.89991838 24.00214731 58.54841079 25.17578125 57.1640625 C25.73910156 56.51308594 26.30242187 55.86210937 26.8828125 55.19140625 C28.0146 53.85817648 29.13672486 52.51669519 30.25 51.16796875 C30.78238281 50.52730469 31.31476563 49.88664062 31.86328125 49.2265625 C32.33378906 48.6490625 32.80429687 48.0715625 33.2890625 47.4765625 C34.55078125 46.2265625 34.55078125 46.2265625 36.55078125 46.2265625 C37.33634874 48.24171389 38.10311421 50.26419276 38.86328125 52.2890625 C39.50716797 53.97708984 39.50716797 53.97708984 40.1640625 55.69921875 C43.92723877 67.09669633 45.11047516 78.46167996 45.05078125 90.4140625 C45.04901886 91.08399231 45.04725647 91.75392212 45.04544067 92.44415283 C44.97631144 104.30799572 43.50451643 115.03754154 39.55078125 126.2265625 C39.2990918 126.96503418 39.04740234 127.70350586 38.78808594 128.46435547 C34.94061456 139.50103279 29.34226678 148.76566309 22.55078125 158.2265625 C21.89078125 159.2165625 21.23078125 160.2065625 20.55078125 161.2265625 C26.49986252 168.63291796 26.49986252 168.63291796 34.5546875 173.07421875 C37.38321977 173.2725621 37.38321977 173.2725621 40.04296875 173.1015625 C45.58890803 173.37799561 49.29351229 177.68667368 52.99609375 181.44482422 C53.51548523 181.96392365 54.03487671 182.48302307 54.57000732 183.01785278 C56.27671894 184.72595151 57.97624253 186.44101669 59.67578125 188.15625 C60.86691141 189.35111513 62.05848748 190.54553589 63.25048828 191.73953247 C66.38310831 194.87977276 69.50968143 198.02596671 72.63500977 201.17346191 C75.80645934 204.36532161 78.98352368 207.55158126 82.16015625 210.73828125 C87.29635461 215.89202752 92.42917514 221.04910823 97.55731201 226.21087646 C99.78275239 228.45048439 102.01162732 230.68641213 104.24658203 232.91653442 C109.12092655 237.80320941 110.84193138 241.01945334 111.11328125 247.9765625 C110.8874611 254.66648432 109.78491662 259.93389329 105.55078125 265.2265625 C99.93561675 269.96072705 95.26078711 272.39737604 87.92578125 272.6015625 C86.73726563 272.65054687 85.54875 272.69953125 84.32421875 272.75 C73.86918786 271.29971621 66.49201515 261.58917647 59.40625 254.4453125 C58.1474282 253.18597126 56.88808601 251.92715 55.62825012 250.66882324 C53.00042299 248.04090677 50.37780509 245.40793571 47.7590332 242.77099609 C44.40738421 239.39660297 41.04471147 236.03345799 37.67830944 232.67378998 C35.08109534 230.07992065 32.48890085 227.48108261 29.89827919 224.88063049 C28.66007698 223.63858919 27.42053563 222.39788135 26.17961693 221.15855408 C24.44702968 219.42633877 22.72109925 217.68775209 20.99682617 215.94726562 C20.48718826 215.44010513 19.97755035 214.93294464 19.45246887 214.41041565 C12.62605744 207.48157528 12.62605744 207.48157528 12.4609375 202.53515625 C12.51121094 201.58769531 12.56148437 200.64023437 12.61328125 199.6640625 C12.28010749 192.60603934 8.68707312 189.43659114 3.76782227 184.88452148 C2.38059984 183.64424265 0.96814378 182.43228266 -0.44921875 181.2265625 C-0.92488281 181.4946875 -1.40054688 181.7628125 -1.890625 182.0390625 C-3.42750254 182.89948749 -4.96840334 183.75273902 -6.51171875 184.6015625 C-8.62591284 185.77111668 -10.72882442 186.96115094 -12.82421875 188.1640625 C-39.08974029 203.00640294 -69.25306662 206.01409736 -98.27734375 198.1953125 C-129.22236806 188.6140079 -153.03632405 167.85723244 -168.26171875 139.4765625 C-181.58582927 111.45108965 -182.91303572 80.17866314 -173.26171875 50.7890625 C-168.31279758 38.25784926 -161.37247718 27.29341542 -152.44921875 17.2265625 C-151.83820313 16.47246094 -151.2271875 15.71835938 -150.59765625 14.94140625 C-133.33510767 -5.88383852 -106.16224056 -18.40832048 -79.68774414 -21.57275391 C-52.02440352 -24.05276983 -21.8782229 -18.17536086 0 0 Z " fill="#236084" transform="translate(316.44921875,182.7734375)"/>
<path d="M0 0 C0.09426508 15.06656228 0.16437519 30.13311086 0.20724869 45.19990349 C0.22770219 52.19880013 0.25548408 59.19751153 0.30175781 66.19628906 C0.34653494 72.97205434 0.36925118 79.7476287 0.37950897 86.52353287 C0.38680294 89.08662028 0.40104012 91.6496993 0.42292023 94.2127037 C0.72398862 131.00000568 -6.50455167 165.32715118 -22.25 198.625 C-22.64977051 199.47094727 -23.04954102 200.31689453 -23.46142578 201.18847656 C-25.89804602 206.17471971 -28.65261082 210.57242495 -32 215 C-37.42470341 212.63613278 -41.1600869 208.28829025 -45.3125 204.1875 C-46.16134766 203.37990234 -47.01019531 202.57230469 -47.88476562 201.74023438 C-48.68205078 200.95326172 -49.47933594 200.16628906 -50.30078125 199.35546875 C-51.03466064 198.64028076 -51.76854004 197.92509277 -52.5246582 197.18823242 C-54 195 -54 195 -53.84716797 192.48071289 C-53.06827463 190.19992465 -52.2289152 188.10356233 -51.14453125 185.953125 C-50.77223389 185.19942627 -50.39993652 184.44572754 -50.01635742 183.66918945 C-49.420448 182.47169067 -49.420448 182.47169067 -48.8125 181.25 C-35.37914337 153.51085225 -30.64454963 125.32287503 -31.015625 94.6875 C-31.0320135 92.8384359 -31.0476886 90.98936536 -31.06266785 89.14028931 C-31.16278303 77.6611457 -31.16278303 77.6611457 -31.39404297 66.18408203 C-32.2805354 30.39841734 -32.2805354 30.39841734 -24.74188232 21.99609375 C-22.20738961 19.74341062 -19.61668652 17.83723423 -16.71029663 16.09387207 C-14.3551285 14.58755288 -12.72523451 12.67858462 -11 10.5 C-2.11184211 0 -2.11184211 0 0 0 Z " fill="#183A5C" transform="translate(424,154)"/>
<path d="M0 0 C2 2 2 2 2.3125 4.9375 C2 8 2 8 0.8515625 9.6640625 C-1.75498658 11.54473716 -3.74569463 11.37172947 -6.9375 11.4375 C-20.72759895 12.23337697 -34.54500665 18.22378611 -44.17578125 28.26953125 C-49.6463465 34.78020397 -53.65036529 41.43720078 -57.46875 49.0078125 C-59 52 -59 52 -60 53 C-62.9375 53.25 -62.9375 53.25 -66 53 C-68.36210035 49.45684948 -68.39894661 48.17631449 -68 44 C-61.78451326 27.3121176 -49.64085848 14.59288949 -34.125 6.125 C-23.40463707 1.25053077 -11.77546429 -1.44876957 0 0 Z " fill="#286180" transform="translate(252,203)"/>
<path d="M0 0 C0.33 0 0.66 0 1 0 C1.33 9.24 1.66 18.48 2 28 C2.66 27.01 3.32 26.02 4 25 C4 42.49 4 59.98 4 78 C3.34 78 2.68 78 2 78 C1.67 95.16 1.34 112.32 1 130 C0.67 130 0.34 130 0 130 C0 87.1 0 44.2 0 0 Z " fill="#113050" transform="translate(75,136)"/>
<path d="M0 0 C0.66 0 1.32 0 2 0 C2.33 38.28 2.66 76.56 3 116 C2.67 116 2.34 116 2 116 C1.67 118.64 1.34 121.28 1 124 C0.67 124 0.34 124 0 124 C0 83.08 0 42.16 0 0 Z " fill="#112D4B" transform="translate(102,159)"/>
<path d="M0 0 C2 1 2 1 3 3.80859375 C8.39979285 23.40393578 8.39979285 23.40393578 8 31 C5.68540132 29.18182999 5.04622813 28.24384457 4.48828125 25.30078125 C4.40126953 23.82158203 4.40126953 23.82158203 4.3125 22.3125 C4.21388672 20.82169922 4.21388672 20.82169922 4.11328125 19.30078125 C4.05720703 18.16189453 4.05720703 18.16189453 4 17 C3.34 17.66 2.68 18.32 2 19 C1 18 1 18 0.9375 15.48828125 C0.958125 14.44027344 0.97875 13.39226562 1 12.3125 C1.04036191 8.07954484 0.92295584 4.15330128 0 0 Z " fill="#2A5F7B" transform="translate(353,233)"/>
<path d="M0 0 C-2.74150247 1.82766831 -5.20497257 2.83561688 -8.29443359 3.90356445 C-17.01922747 6.92888315 -24.30624725 10.91532744 -32 16 C-32.66 16.33 -33.32 16.66 -34 17 C-34.33 16.01 -34.66 15.02 -35 14 C-34.01 14 -33.02 14 -32 14 C-32 13.34 -32 12.68 -32 12 C-28.3874638 10.15172566 -24.7910119 8.44950455 -21 7 C-21 6.34 -21 5.68 -21 5 C-18.44013121 4.15774 -15.87760985 3.32601449 -13.3125 2.5 C-12.59126953 2.26152344 -11.87003906 2.02304688 -11.12695312 1.77734375 C-7.30592343 0.55601006 -4.06557944 -0.32075577 0 0 Z " fill="#2E5B74" transform="translate(232,191)"/>
<path d="M0 0 C5.93168664 1.16515273 11.71140069 2.70878095 17.5 4.4375 C18.21865234 4.64270264 18.93730469 4.84790527 19.67773438 5.05932617 C21.48350469 5.61164133 23.24743319 6.29688689 25 7 C25.33 7.99 25.66 8.98 26 10 C23.03 10 20.06 10 17 10 C17 8.68 17 7.36 17 6 C11.39 5.34 5.78 4.68 0 4 C0 2.68 0 1.36 0 0 Z " fill="#15324F" transform="translate(342,115)"/>
<path d="M0 0 C1.34431266 0.08435641 2.68792592 0.18036137 4.03076172 0.28564453 C5.09192703 0.35647751 5.09192703 0.35647751 6.17453003 0.42874146 C8.43731438 0.58207489 10.69873875 0.75008792 12.96044922 0.91845703 C14.49293443 1.02489309 16.0254863 1.13037396 17.55810547 1.23486328 C21.31808368 1.49331083 25.07690729 1.76492956 28.83544922 2.04345703 C26.45009306 4.42881319 25.93333169 4.29933123 22.68701172 4.30908203 C21.43355957 4.31488281 21.43355957 4.31488281 20.15478516 4.32080078 C19.2656543 4.31177734 18.37652344 4.30275391 17.46044922 4.29345703 C16.56100586 4.28958984 15.6615625 4.28572266 14.73486328 4.28173828 C7.92723941 4.19374027 1.48771754 3.55779454 -5.16455078 2.04345703 C-3.16455078 0.04345703 -3.16455078 0.04345703 0 0 Z " fill="#436C83" transform="translate(232.16455078125,380.95654296875)"/>
<path d="M0 0 C2 3.75 2 3.75 2 6 C1.40219727 6.11335693 0.80439453 6.22671387 0.18847656 6.34350586 C-3.34110563 7.40230177 -5.64516779 10.06672177 -8.25 12.5625 C-8.80429687 13.08263672 -9.35859375 13.60277344 -9.9296875 14.13867188 C-11.29256828 15.41930985 -12.64711683 16.7088049 -14 18 C-14.66 17.67 -15.32 17.34 -16 17 C-15.25556641 16.27296875 -15.25556641 16.27296875 -14.49609375 15.53125 C-10.26188493 11.35328304 -6.22406871 7.07858568 -2.34765625 2.56640625 C-1.59150381 1.68751602 -0.81982149 0.81982149 0 0 Z " fill="#233F58" transform="translate(328,193)"/>
<path d="M0 0 C0.96357422 0.04382813 1.92714844 0.08765625 2.91992188 0.1328125 C3.92990234 0.184375 4.93988281 0.2359375 5.98046875 0.2890625 C6.97884766 0.33289063 7.97722656 0.37671875 9.00585938 0.421875 C13.50300068 0.63759397 17.76116291 0.94467414 22.16796875 1.9140625 C22.16796875 2.2440625 22.16796875 2.5740625 22.16796875 2.9140625 C21.224375 2.90246094 20.28078125 2.89085937 19.30859375 2.87890625 C11.19870991 2.82190907 3.24504678 3.07176014 -4.83203125 3.9140625 C-5.49203125 2.9240625 -6.15203125 1.9340625 -6.83203125 0.9140625 C-4.32768464 -0.3381108 -2.79222726 -0.12944269 0 0 Z " fill="#255D7D" transform="translate(235.83203125,162.0859375)"/>
<path d="M0 0 C0 4.11898717 -2.17703093 5.73951293 -4.875 8.5625 C-5.61133667 9.34898926 -5.61133667 9.34898926 -6.36254883 10.15136719 C-11.12923034 15.21200551 -16.03614857 20.13305673 -21 25 C-21.66 24.67 -22.32 24.34 -23 24 C-22.14277344 23.154375 -21.28554688 22.30875 -20.40234375 21.4375 C-12.13062637 13.25099974 -12.13062637 13.25099974 -4.3671875 4.5859375 C-2.98032408 2.97717593 -1.51930632 1.48334641 0 0 Z " fill="#D6E1E6" transform="translate(383,178)"/>
<path d="M0 0 C0.66 0.66 1.32 1.32 2 2 C-4.93 8.93 -11.86 15.86 -19 23 C-19 20 -19 20 -16.3671875 17.109375 C-15.20973733 15.98274996 -14.04527165 14.86330102 -12.875 13.75 C-11.67914803 12.58652523 -10.48511458 11.4211782 -9.29296875 10.25390625 C-8.7211084 9.69461426 -8.14924805 9.13532227 -7.56005859 8.55908203 C-4.85114931 5.85186846 -2.41571171 2.96787438 0 0 Z M-22 23 C-20 24 -20 24 -20 24 Z " fill="#DEE8ED" transform="translate(320,245)"/>
<path d="M0 0 C5.27315333 0.4452885 10.01770224 1.08373163 15 3 C11.57905758 5.28062828 10.31812778 5.21925007 6.3125 5.125 C4.82169922 5.09792969 4.82169922 5.09792969 3.30078125 5.0703125 C2.54152344 5.04710937 1.78226562 5.02390625 1 5 C0.67 3.35 0.34 1.7 0 0 Z " fill="#163653" transform="translate(376,126)"/>
<path d="M0 0 C0.66 0.33 1.32 0.66 2 1 C0.7934375 2.11375 0.7934375 2.11375 -0.4375 3.25 C-3.10455086 5.65636666 -3.10455086 5.65636666 -3.5 8.125 C-4 10 -4 10 -6.4375 11.625 C-7.283125 12.07875 -8.12875 12.5325 -9 13 C-9.66 13.66 -10.32 14.32 -11 15 C-13.125 14.625 -13.125 14.625 -15 14 C-11.42115302 10.30931405 -7.66273258 6.90801605 -3.76953125 3.55078125 C-2.47133312 2.41306678 -1.2205967 1.2205967 0 0 Z " fill="#336481" transform="translate(312,326)"/>
<path d="M0 0 C-4.10204724 2.94226538 -7.05153063 3.40715595 -12.0625 3.375 C-13.27035156 3.38273437 -14.47820312 3.39046875 -15.72265625 3.3984375 C-19.15120125 2.98161796 -20.52493596 2.33310276 -23 0 C-21.21142578 0.01740234 -21.21142578 0.01740234 -19.38671875 0.03515625 C-17.82031406 0.04453592 -16.25390769 0.05363593 -14.6875 0.0625 C-13.50897461 0.07506836 -13.50897461 0.07506836 -12.30664062 0.08789062 C-11.1706543 0.09272461 -11.1706543 0.09272461 -10.01171875 0.09765625 C-8.96697388 0.10551147 -8.96697388 0.10551147 -7.90112305 0.11352539 C-0.91156611 -0.30385537 -0.91156611 -0.30385537 0 0 Z " fill="#306078" transform="translate(416,452)"/>
<path d="M0 0 C0.845625 -0.01417969 1.69125 -0.02835938 2.5625 -0.04296875 C5.15408616 0.20206904 6.77024992 0.88165099 9 2.1875 C4.30281282 4.6537586 0.29848102 4.24091417 -4.8125 3.8125 C-5.99489258 3.72742188 -5.99489258 3.72742188 -7.20117188 3.640625 C-9.13489961 3.49999026 -11.06758595 3.34516112 -13 3.1875 C-8.61356336 0.83762323 -4.96868021 0.03787104 0 0 Z " fill="#215571" transform="translate(256,186.8125)"/>
<path d="M0 0 C-1.40301147 3.18673962 -3.07765071 5.32221406 -5.5625 7.75 C-6.49255859 8.67039063 -6.49255859 8.67039063 -7.44140625 9.609375 C-9 11 -9 11 -10 11 C-10 9.35 -10 7.7 -10 6 C-9.01 6 -8.02 6 -7 6 C-7 4.68 -7 3.36 -7 2 C-4 0 -4 0 0 0 Z " fill="#1A3550" transform="translate(358,204)"/>
<path d="M0 0 C4.75 0.875 4.75 0.875 7 2 C8.53668865 2.22467831 10.07968054 2.40796805 11.625 2.5625 C12.44226563 2.64628906 13.25953125 2.73007812 14.1015625 2.81640625 C14.72804687 2.87699219 15.35453125 2.93757813 16 3 C15.67 4.65 15.34 6.3 15 8 C9.52067211 6.45454854 4.88570819 3.84456788 0 1 C0 0.67 0 0.34 0 0 Z " fill="#243F59" transform="translate(219,466)"/>
<path d="M0 0 C0 1.65 0 3.3 0 5 C-0.66 5 -1.32 5 -2 5 C-3.80693756 6.78612311 -3.80693756 6.78612311 -5.625 9 C-6.57246094 10.11375 -6.57246094 10.11375 -7.5390625 11.25 C-8.02117187 11.8275 -8.50328125 12.405 -9 13 C-9.66 12.67 -10.32 12.34 -11 12 C-9.36285727 8.82201706 -4.14450342 0 0 0 Z " fill="#1B364E" transform="translate(424,154)"/>
<path d="M0 0 C2.29141286 -0.05384521 4.58318188 -0.09272087 6.875 -0.125 C8.78925781 -0.15980469 8.78925781 -0.15980469 10.7421875 -0.1953125 C14 0 14 0 16 2 C16.125 5.125 16.125 5.125 16 8 C15.34 7.67 14.68 7.34 14 7 C13.375 4.4375 13.375 4.4375 13 2 C12.09507812 2.03480469 12.09507812 2.03480469 11.171875 2.0703125 C9.97304687 2.09738281 9.97304687 2.09738281 8.75 2.125 C7.96109375 2.14820313 7.1721875 2.17140625 6.359375 2.1953125 C3.79268059 1.9828378 2.2083933 1.28654105 0 0 Z " fill="#3B667D" transform="translate(238,203)"/>
<path d="M0 0 C6.04801071 0.54981916 11.30601106 1.90429574 17 4 C17 4.66 17 5.32 17 6 C17.99 6 18.98 6 20 6 C20 6.66 20 7.32 20 8 C13.14381674 6.07443364 6.56747868 3.7527517 0 1 C0 0.67 0 0.34 0 0 Z " fill="#2E475E" transform="translate(309,133)"/>
<path d="M0 0 C0.99 0.66 1.98 1.32 3 2 C-1.95 8.93 -1.95 8.93 -7 16 C-7.33 15.01 -7.66 14.02 -8 13 C-6.6875 10.5 -6.6875 10.5 -5 8 C-4.34 7.01 -3.68 6.02 -3 5 C-2.34 5 -1.68 5 -1 5 C-0.67 3.35 -0.34 1.7 0 0 Z " fill="#37647E" transform="translate(345,326)"/>
<path d="M0 0 C0.66 0 1.32 0 2 0 C1.03644647 10.55808656 1.03644647 10.55808656 0 15 C-2 14 -2 14 -2.71484375 12.265625 C-3.07550916 9.40006423 -2.46183383 7.48397484 -1.5625 4.75 C-1.27503906 3.85796875 -0.98757813 2.9659375 -0.69140625 2.046875 C-0.46324219 1.37140625 -0.23507812 0.6959375 0 0 Z " fill="#396A84" transform="translate(359,283)"/>
<path d="M0 0 C0.66 0.33 1.32 0.66 2 1 C-0.55398281 5.16204606 -2.95054353 8.22931926 -7 11 C-7.66 11 -8.32 11 -9 11 C-7.59155282 7.78475695 -5.89655214 5.67816132 -3.375 3.25 C-2.74335938 2.63640625 -2.11171875 2.0228125 -1.4609375 1.390625 C-0.73777344 0.70226562 -0.73777344 0.70226562 0 0 Z " fill="#254057" transform="translate(301,222)"/>
<path d="M0 0 C0.66 0.33 1.32 0.66 2 1 C2.11138159 6.45769811 1.91657981 11.61509359 1 17 C0.34 16.67 -0.32 16.34 -1 16 C-1.02725341 14.2709226 -1.04650987 12.54171824 -1.0625 10.8125 C-1.07410156 9.84957031 -1.08570313 8.88664062 -1.09765625 7.89453125 C-1.00486622 5.14423487 -0.62111685 2.67520409 0 0 Z " fill="#2A5C7A" transform="translate(140,279)"/>
<path d="M0 0 C3.33435305 1.41856248 5.19565826 3.09931563 7.5 5.875 C9.89758153 8.71084912 12.31779415 11.42508238 15 14 C14.67 14.66 14.34 15.32 14 16 C11.65861457 13.71643754 9.32833018 11.42186626 7 9.125 C5.99839844 8.14853516 5.99839844 8.14853516 4.9765625 7.15234375 C4.34492188 6.52714844 3.71328125 5.90195312 3.0625 5.2578125 C2.47597656 4.6817627 1.88945312 4.10571289 1.28515625 3.51220703 C0 2 0 2 0 0 Z " fill="#162F47" transform="translate(196,273)"/>
<path d="M0 0 C2.62187494 1.04874998 3.79371361 1.64931313 5.25 4.125 C5.4975 4.74375 5.745 5.3625 6 6 C4.35 7.65 2.7 9.3 1 11 C0.01 10.67 -0.98 10.34 -2 10 C-1.01 9.67 -0.02 9.34 1 9 C2.2676439 6.26969007 2.04311598 5.12647354 1.0625 2.25 C0.711875 1.5075 0.36125 0.765 0 0 Z " fill="#2E4459" transform="translate(339,417)"/>
<path d="M0 0 C3 3.75 3 3.75 3 6 C4.65 6 6.3 6 8 6 C8 6.99 8 7.98 8 9 C5.125 9.1875 5.125 9.1875 2 9 C-0.29013653 5.5647952 -0.17842973 4.014669 0 0 Z " fill="#366379" transform="translate(184,247)"/>
<path d="M0 0 C0.67578125 1.76953125 0.67578125 1.76953125 1 4 C-0.14453125 5.88671875 -0.14453125 5.88671875 -1.8125 7.6875 C-2.35519531 8.28949219 -2.89789063 8.89148438 -3.45703125 9.51171875 C-5 11 -5 11 -7 12 C-7.4375 9.9375 -7.4375 9.9375 -7 7 C-4.87919817 4.42739828 -2.49372439 2.20745501 0 0 Z " fill="#285B76" transform="translate(337,245)"/>
<path d="M0 0 C0.33 0 0.66 0 1 0 C1.33 2.97 1.66 5.94 2 9 C2.33 6.36 2.66 3.72 3 1 C3.33 1 3.66 1 4 1 C4.05391993 2.79133978 4.09275571 4.58313899 4.125 6.375 C4.14820313 7.37273437 4.17140625 8.37046875 4.1953125 9.3984375 C4 12 4 12 2 14 C1.34 13.67 0.68 13.34 0 13 C0 8.71 0 4.42 0 0 Z " fill="#245A77" transform="translate(423,426)"/>
<path d="M0 0 C0.99 0.33 1.98 0.66 3 1 C-0.66666667 4.66666667 -4.33333333 8.33333333 -8 12 C-7.84595887 6.91664275 -4.97931568 4.64245282 -1.49609375 1.35546875 C-1.00238281 0.90816406 -0.50867188 0.46085938 0 0 Z " fill="#16344F" transform="translate(291,233)"/>
<path d="M0 0 C0.66 0.33 1.32 0.66 2 1 C0.75625426 2.60902058 -0.49526899 4.21203107 -1.75 5.8125 C-2.44609375 6.70582031 -3.1421875 7.59914062 -3.859375 8.51953125 C-5.77825964 10.74305633 -7.58099964 12.3600921 -10 14 C-10.66 13.67 -11.32 13.34 -12 13 C-11.21753906 12.22914063 -10.43507813 11.45828125 -9.62890625 10.6640625 C-8.60663943 9.65117427 -7.58451119 8.63814616 -6.5625 7.625 C-6.04623047 7.11710938 -5.52996094 6.60921875 -4.99804688 6.0859375 C-2.142867 3.31431064 -2.142867 3.31431064 0 0 Z " fill="#456B7F" transform="translate(351,229)"/>
<path d="M0 0 C3.96 0.33 7.92 0.66 12 1 C10.02 1.99 10.02 1.99 8 3 C8 3.66 8 4.32 8 5 C6.68 5 5.36 5 4 5 C4 4.34 4 3.68 4 3 C2.68 3 1.36 3 0 3 C0 2.01 0 1.02 0 0 Z " fill="#2A4762" transform="translate(405,132)"/>
<path d="M0 0 C0.33 0 0.66 0 1 0 C1.10854617 2.39706123 1.18753157 4.78915838 1.25 7.1875 C1.28351563 7.86103516 1.31703125 8.53457031 1.3515625 9.22851562 C1.42503051 12.99375127 1.11393243 14.83108854 -1.015625 17.98828125 C-1.99789063 18.98408203 -1.99789063 18.98408203 -3 20 C-3.66 19.67 -4.32 19.34 -5 19 C-4.360625 17.906875 -3.72125 16.81375 -3.0625 15.6875 C-0.48668849 10.61779324 -0.2062446 5.60985308 0 0 Z " fill="#BBD2DA" transform="translate(427,427)"/>
<path d="M0 0 C0.66 0.99 1.32 1.98 2 3 C-0.31 6.96 -2.62 10.92 -5 15 C-5.66 14.34 -6.32 13.68 -7 13 C-6.01 10.69 -5.02 8.38 -4 6 C-3.34 6 -2.68 6 -2 6 C-1.855625 5.195625 -1.71125 4.39125 -1.5625 3.5625 C-1 1 -1 1 0 0 Z " fill="#38667D" transform="translate(180,223)"/>
<path d="M0 0 C0 0.66 0 1.32 0 2 C-3.53509289 5.01776222 -5.16237408 6.05404038 -9.875 5.75 C-10.90625 5.5025 -11.9375 5.255 -13 5 C-10.54278328 3.36185552 -8.65432189 2.38047801 -5.9375 1.375 C-5.24527344 1.11460937 -4.55304688 0.85421875 -3.83984375 0.5859375 C-2 0 -2 0 0 0 Z " fill="#376781" transform="translate(286,347)"/>
<path d="M0 0 C0.33 0 0.66 0 1 0 C2.19088986 5.38027025 3.2919519 10.45291384 3 16 C1.51171875 14.91796875 1.51171875 14.91796875 0 13 C-0.29296875 9.86328125 -0.29296875 9.86328125 -0.1875 6.3125 C-0.16042969 5.13300781 -0.13335937 3.95351562 -0.10546875 2.73828125 C-0.07066406 1.83464844 -0.03585937 0.93101562 0 0 Z " fill="#396882" transform="translate(358,248)"/>
<path d="M0 0 C1.30150781 3.90452342 0.62254053 7.20460309 0.0625 11.1875 C-0.03740234 11.93708984 -0.13730469 12.68667969 -0.24023438 13.45898438 C-0.48739641 15.30681482 -0.74289611 17.1535266 -1 19 C-3 17 -3 17 -3.1875 14.4375 C-3 12 -3 12 -2 11 C-1.79224439 9.33795513 -1.63281745 7.66970509 -1.5 6 C-1.11111111 1.11111111 -1.11111111 1.11111111 0 0 Z " fill="#31617C" transform="translate(169,244)"/>
<path d="M0 0 C0.33 0 0.66 0 1 0 C1 3.3 1 6.6 1 10 C-0.32 10.33 -1.64 10.66 -3 11 C-2.69078116 9.54096742 -2.37751201 8.08279278 -2.0625 6.625 C-1.88847656 5.81289062 -1.71445313 5.00078125 -1.53515625 4.1640625 C-1 2 -1 2 0 0 Z " fill="#3F6E88" transform="translate(145,230)"/>
<path d="M0 0 C0.33 0.99 0.66 1.98 1 3 C-0.76956458 5.14210449 -1.87575652 5.96060573 -4.5625 6.8125 C-5.7690625 6.9053125 -5.7690625 6.9053125 -7 7 C-7.66 6.34 -8.32 5.68 -9 5 C-6.03 3.35 -3.06 1.7 0 0 Z " fill="#25415B" transform="translate(278,433)"/>
<path d="M0 0 C2.24834496 -0.13526139 4.49902514 -0.23210804 6.75 -0.3125 C8.00296875 -0.37050781 9.2559375 -0.42851562 10.546875 -0.48828125 C14 0 14 0 16.453125 2.51953125 C16.96359375 3.33808594 17.4740625 4.15664063 18 5 C15.69 4.34 13.38 3.68 11 3 C11 2.34 11 1.68 11 1 C7.37 1 3.74 1 0 1 C0 0.67 0 0.34 0 0 Z " fill="#2F5E78" transform="translate(348,357)"/>
<path d="M0 0 C1.65 0 3.3 0 5 0 C5.0825 0.7425 5.165 1.485 5.25 2.25 C6.1396946 5.51221354 7.48503749 6.80954878 10 9 C9.67 9.66 9.34 10.32 9 11 C7.49403892 9.54782324 5.99537896 8.08807139 4.5 6.625 C3.6646875 5.81289063 2.829375 5.00078125 1.96875 4.1640625 C0 2 0 2 0 0 Z " fill="#2F5D75" transform="translate(165,345)"/>
<path d="M0 0 C0.33 0 0.66 0 1 0 C3.32086397 5.324335 2.91457003 9.43842552 2 15 C-0.02558881 11.65060119 -0.21738987 9.13037449 -0.125 5.25 C-0.09792969 3.77273438 -0.09792969 3.77273438 -0.0703125 2.265625 C-0.04710937 1.51796875 -0.02390625 0.7703125 0 0 Z " fill="#133251" transform="translate(417,287)"/>
<path d="M0 0 C3.21524305 1.40844718 5.32183868 3.10344786 7.75 5.625 C8.67039063 6.57246094 8.67039063 6.57246094 9.609375 7.5390625 C10.29773438 8.26222656 10.29773438 8.26222656 11 9 C10.34 9.66 9.68 10.32 9 11 C9 10.34 9 9.68 9 9 C8.01 8.67 7.02 8.34 6 8 C3.8125 6.0625 3.8125 6.0625 2 4 C2 3.34 2 2.68 2 2 C1.01 1.67 0.02 1.34 -1 1 C-0.67 0.67 -0.34 0.34 0 0 Z " fill="#223B51" transform="translate(214,252)"/>
<path d="M0 0 C0.33 1.32 0.66 2.64 1 4 C-0.4375 6.25 -0.4375 6.25 -2 8 C-3.32 7.34 -4.64 6.68 -6 6 C-4.02 4.02 -2.04 2.04 0 0 Z " fill="#3B6A84" transform="translate(172,191)"/>
<path d="M0 0 C0.66 0.33 1.32 0.66 2 1 C-1.63 4.63 -5.26 8.26 -9 12 C-9.66 11.67 -10.32 11.34 -11 11 C-7.6189962 6.86378916 -4.33409466 3.18683431 0 0 Z " fill="#E1F2F6" transform="translate(215,224)"/>
<path d="M0 0 C7.42857143 -0.28571429 7.42857143 -0.28571429 11 2 C10.67 2.66 10.34 3.32 10 4 C7.36 3.67 4.72 3.34 2 3 C2 2.34 2 1.68 2 1 C1.34 0.67 0.68 0.34 0 0 Z " fill="#142F47" transform="translate(412,134)"/>
<path d="M0 0 C4.55737263 0.43820891 7.57653445 0.85041169 11 4 C8.83032311 4.95465783 7.43671207 5.14401212 5.17578125 4.3984375 C3.4315257 3.64129615 1.71372869 2.82390802 0 2 C0 1.34 0 0.68 0 0 Z " fill="#25415B" transform="translate(291,124)"/>
<path d="M0 0 C0.66 0 1.32 0 2 0 C2.33 0.66 2.66 1.32 3 2 C3.66 2 4.32 2 5 2 C4.34 3.98 3.68 5.96 3 8 C2.34 8 1.68 8 1 8 C-0.35439668 5.29120665 -0.06501451 2.99066732 0 0 Z " fill="#153452" transform="translate(405,329)"/>
<path d="M0 0 C0.66 0.66 1.32 1.32 2 2 C1.9765625 4.6015625 1.9765625 4.6015625 1.625 7.625 C1.51414062 8.62789063 1.40328125 9.63078125 1.2890625 10.6640625 C1.19367188 11.43492187 1.09828125 12.20578125 1 13 C0.67 13 0.34 13 0 13 C-0.98248196 8.94726192 -1.16017882 5.16464926 -1 1 C-0.67 0.67 -0.34 0.34 0 0 Z " fill="#132F4C" transform="translate(108,295)"/>
<path d="M0 0 C0.66 0 1.32 0 2 0 C2.83796731 4.65537393 3.0161692 8.37078475 2 13 C-0.20914 9.68629 -0.22481553 8.6553979 -0.125 4.8125 C-0.10695313 3.91144531 -0.08890625 3.01039063 -0.0703125 2.08203125 C-0.04710938 1.39496094 -0.02390625 0.70789063 0 0 Z " fill="#1A344F" transform="translate(76,272)"/>
<path d="M0 0 C0.33 0 0.66 0 1 0 C1 4.95 1 9.9 1 15 C-1.23827489 10.52345022 -1.68659116 7.93618919 -2 3 C-1.34 2.01 -0.68 1.02 0 0 Z " fill="#1D5677" transform="translate(141,252)"/>
<path d="M0 0 C0.66 0 1.32 0 2 0 C0.72648692 3.82053924 -0.62637525 4.23021375 -4.0625 6.1875 C-4.98160156 6.71730469 -5.90070313 7.24710938 -6.84765625 7.79296875 C-7.55792969 8.19128906 -8.26820313 8.58960938 -9 9 C-9.33 8.01 -9.66 7.02 -10 6 C-9.01 6 -8.02 6 -7 6 C-7 5.34 -7 4.68 -7 4 C-5.5459375 3.2884375 -5.5459375 3.2884375 -4.0625 2.5625 C-1.19522563 1.29806053 -1.19522563 1.29806053 0 0 Z " fill="#39647C" transform="translate(207,199)"/>
<path d="M0 0 C7.48291572 6.15034169 7.48291572 6.15034169 10 10 C9.01 10.495 9.01 10.495 8 11 C5.24200902 9.62100451 4.56147404 7.62327638 3 5 C2.443125 4.443125 1.88625 3.88625 1.3125 3.3125 C0.879375 2.879375 0.44625 2.44625 0 2 C0 1.34 0 0.68 0 0 Z " fill="#213B54" transform="translate(149,377)"/>
<path d="M0 0 C0.66 0 1.32 0 2 0 C2.36923077 6.52307692 2.36923077 6.52307692 0.5 8.9375 C0.005 9.288125 -0.49 9.63875 -1 10 C-2.46726798 6.18510326 -1.43336419 3.70988378 0 0 Z " fill="#2F4661" transform="translate(385,310)"/>
<path d="M0 0 C0 3.54404336 -0.60989485 4.10267905 -2.875 6.6875 C-3.40867187 7.31011719 -3.94234375 7.93273437 -4.4921875 8.57421875 C-6 10 -6 10 -8 10 C-6.34908222 5.70761377 -3.26245434 3.1206085 0 0 Z " fill="#2A4359" transform="translate(403,175)"/>
<path d="M0 0 C0.66 0.66 1.32 1.32 2 2 C0.02 4.97 -1.96 7.94 -4 11 C-4.66 10.67 -5.32 10.34 -6 10 C-6 9.34 -6 8.68 -6 8 C-5.01 7.34 -4.02 6.68 -3 6 C-2.67 5.01 -2.34 4.02 -2 3 C-1.34 3 -0.68 3 0 3 C0 2.01 0 1.02 0 0 Z " fill="#38667F" transform="translate(424,439)"/>
<path d="M0 0 C1.46015291 0.28241641 2.91809793 0.57626614 4.375 0.875 C5.18710938 1.03742188 5.99921875 1.19984375 6.8359375 1.3671875 C9 2 9 2 11 4 C8.69 4.33 6.38 4.66 4 5 C3.67 4.01 3.34 3.02 3 2 C2.01 1.67 1.02 1.34 0 1 C0 0.67 0 0.34 0 0 Z " fill="#295975" transform="translate(216,349)"/>
<path d="M0 0 C0 0.99 0 1.98 0 3 C-1.98 3.33 -3.96 3.66 -6 4 C-6 3.34 -6 2.68 -6 2 C-7.65 2 -9.3 2 -11 2 C-11 1.67 -11 1.34 -11 1 C-7.27569643 0.30710631 -3.78916254 -0.11144596 0 0 Z " fill="#2F4A62" transform="translate(94,132)"/>
<path d="M0 0 C0.66 0.33 1.32 0.66 2 1 C0.92807816 2.3218362 -0.15802695 3.63217927 -1.25 4.9375 C-1.85328125 5.66839844 -2.4565625 6.39929688 -3.078125 7.15234375 C-5.10741134 9.10326334 -6.254407 9.61731779 -9 10 C-8.06409496 8.8944811 -7.12620142 7.79064547 -6.1875 6.6875 C-5.66542969 6.07261719 -5.14335937 5.45773437 -4.60546875 4.82421875 C-3.12827531 3.14575321 -1.59960869 1.56117966 0 0 Z " fill="#2E5C75" transform="translate(312,326)"/>
<path d="M0 0 C0.99 0 1.98 0 3 0 C2.01 2.97 1.02 5.94 0 9 C-0.33 9 -0.66 9 -1 9 C-1.09765625 2.84765625 -1.09765625 2.84765625 -1 1 C-0.67 0.67 -0.34 0.34 0 0 Z " fill="#2F6079" transform="translate(349,317)"/>
<path d="M0 0 C2.25 0.125 2.25 0.125 5 1 C7.3125 4.0625 7.3125 4.0625 9 7 C6 7 6 7 4.39453125 5.46875 C3.87246094 4.8190625 3.35039062 4.169375 2.8125 3.5 C2.28269531 2.8503125 1.75289062 2.200625 1.20703125 1.53125 C0.80871094 1.0259375 0.41039062 0.520625 0 0 Z " fill="#3A5167" transform="translate(219,298)"/>
<path d="M0 0 C0.33 0.66 0.66 1.32 1 2 C1.66 2.33 2.32 2.66 3 3 C2.071875 3.433125 1.14375 3.86625 0.1875 4.3125 C-2.47184073 5.72038627 -4.08105905 6.76123556 -6 9 C-5.52797514 4.75177626 -3.03344482 2.80010291 0 0 Z " fill="#143049" transform="translate(335,186)"/>
<path d="M0 0 C0 0.99 0 1.98 0 3 C-2.8125 5.75 -2.8125 5.75 -6 8 C-6.99 7.67 -7.98 7.34 -9 7 C-9 6.34 -9 5.68 -9 5 C-8.071875 4.731875 -7.14375 4.46375 -6.1875 4.1875 C-3.23759634 3.08851629 -1.94384814 2.37581439 0 0 Z " fill="#122D46" transform="translate(381,178)"/>
<path d="M0 0 C0.66 0.33 1.32 0.66 2 1 C2 1.99 2 2.98 2 4 C1.236875 4.268125 0.47375 4.53625 -0.3125 4.8125 C-2.87380884 5.94424112 -4.19692938 6.91223401 -6 9 C-6.66 8.67 -7.32 8.34 -8 8 C-5.36 5.36 -2.72 2.72 0 0 Z " fill="#1B354D" transform="translate(364,155)"/>
<path d="M0 0 C0 0.66 0 1.32 0 2 C-0.99 2 -1.98 2 -3 2 C-3.33 2.99 -3.66 3.98 -4 5 C-5.9375 5.8125 -5.9375 5.8125 -8 6 C-8.66 5.34 -9.32 4.68 -10 4 C-8.71086513 3.32845067 -7.41859796 2.66291141 -6.125 2 C-5.40570313 1.62875 -4.68640625 1.2575 -3.9453125 0.875 C-2 0 -2 0 0 0 Z " fill="#364D64" transform="translate(269,439)"/>
<path d="M0 0 C0.66 0 1.32 0 2 0 C2.474375 0.804375 2.94875 1.60875 3.4375 2.4375 C4.79983672 5.2918076 4.79983672 5.2918076 8 6 C8.33 6.99 8.66 7.98 9 9 C6.66471585 8.82701599 5.30822418 8.29774631 3.62109375 6.66796875 C0 2.42788462 0 2.42788462 0 0 Z " fill="#1A3650" transform="translate(124,391)"/>
<path d="M0 0 C-0.33 0.99 -0.66 1.98 -1 3 C-3.64 3 -6.28 3 -9 3 C-6.38997624 -0.48003168 -4.1689578 -0.27793052 0 0 Z " fill="#16314C" transform="translate(156,116)"/>
<path d="M0 0 C0 0.66 0 1.32 0 2 C-3.02525676 4.40240978 -4.4125871 5.05541631 -8.3125 4.6875 C-9.199375 4.460625 -10.08625 4.23375 -11 4 C-3.28571429 0 -3.28571429 0 0 0 Z " fill="#334B62" transform="translate(163,112)"/>
<path d="M0 0 C0.33 0.99 0.66 1.98 1 3 C-0.65 4.32 -2.3 5.64 -4 7 C-4.66 6.01 -5.32 5.02 -6 4 C-4.02 2.68 -2.04 1.36 0 0 Z " fill="#203C57" transform="translate(306,415)"/>
<path d="M0 0 C0.33 0 0.66 0 1 0 C1.36923077 6.52307692 1.36923077 6.52307692 -0.5 8.9375 C-0.995 9.288125 -1.49 9.63875 -2 10 C-3.39195915 5.82412255 -1.82323219 3.86525224 0 0 Z " fill="#2C475F" transform="translate(380,325)"/>
<path d="M0 0 C0.33 0 0.66 0 1 0 C1.37211538 7.56634615 1.37211538 7.56634615 -0.51171875 9.76171875 C-1.00285156 10.17035156 -1.49398437 10.57898438 -2 11 C-1.85957123 9.35369672 -1.71250671 7.70795821 -1.5625 6.0625 C-1.48128906 5.14597656 -1.40007812 4.22945312 -1.31640625 3.28515625 C-1 1 -1 1 0 0 Z " fill="#355F77" transform="translate(141,244)"/>
<path d="M0 0 C0.66 0.33 1.32 0.66 2 1 C-0.31 3.64 -2.62 6.28 -5 9 C-5 4.61031544 -2.87194899 3.23094261 0 0 Z " fill="#366278" transform="translate(201,221)"/>
<path d="M0 0 C0 0.66 0 1.32 0 2 C-0.969375 2.433125 -1.93875 2.86625 -2.9375 3.3125 C-6.27731765 4.7014861 -6.27731765 4.7014861 -7 8 C-7.66 7.67 -8.32 7.34 -9 7 C-7.4576387 2.93377477 -4.5679954 0 0 0 Z " fill="#112F4B" transform="translate(355,169)"/>
<path d="M0 0 C6.93 0.495 6.93 0.495 14 1 C14 1.33 14 1.66 14 2 C8.06 2.495 8.06 2.495 2 3 C1.34 2.01 0.68 1.02 0 0 Z " fill="#1C5473" transform="translate(229,163)"/>
<path d="M0 0 C0 3 0 3 -1.25 4.75 C-3 6 -3 6 -5.1875 5.6875 C-5.785625 5.460625 -6.38375 5.23375 -7 5 C-2.25 1.125 -2.25 1.125 0 0 Z " fill="#2E4861" transform="translate(244,71)"/>
<path d="M0 0 C2.97 1.65 5.94 3.3 9 5 C9 5.33 9 5.66 9 6 C5.97653399 6.2519555 4.3597993 6.20421041 1.6875 4.6875 C1.130625 4.130625 0.57375 3.57375 0 3 C0 2.01 0 1.02 0 0 Z " fill="#E3F3F7" transform="translate(388,449)"/>
<path d="M0 0 C2.375 0.1875 2.375 0.1875 5 1 C6.3125 3.5625 6.3125 3.5625 7 6 C6.01 6 5.02 6 4 6 C0 1.54285714 0 1.54285714 0 0 Z " fill="#2B445C" transform="translate(131,400)"/>
<path d="M0 0 C0 3.61537605 -0.89229241 5.11165997 -3 8 C-3.99 8 -4.98 8 -6 8 C-4.55746343 4.63408134 -2.66735273 2.48952921 0 0 Z " fill="#2A4257" transform="translate(264,261)"/>
<path d="M0 0 C3.79588866 0.54226981 5.47211993 2.20127563 8 5 C6.68 5.99 5.36 6.98 4 8 C4.33 6.68 4.66 5.36 5 4 C4.34 4 3.68 4 3 4 C1.375 2 1.375 2 0 0 Z " fill="#2D576C" transform="translate(311,181)"/>
<path d="M0 0 C2.3431213 0.25561323 4.67843403 0.59270772 7 1 C7.33 1.66 7.66 2.32 8 3 C5.36 3 2.72 3 0 3 C0 2.01 0 1.02 0 0 Z " fill="#2C5D78" transform="translate(280,166)"/>
<path d="M0 0 C0 0.66 0 1.32 0 2 C-2.40545638 3.20272819 -3.94996953 3.10071472 -6.625 3.0625 C-7.85089844 3.04896484 -7.85089844 3.04896484 -9.1015625 3.03515625 C-10.04128906 3.01775391 -10.04128906 3.01775391 -11 3 C-7.20844146 1.05276952 -4.29965574 0 0 0 Z " fill="#395168" transform="translate(124,125)"/>
<path d="M0 0 C2.475 0.495 2.475 0.495 5 1 C5 2.32 5 3.64 5 5 C2.525 4.01 2.525 4.01 0 3 C0 2.01 0 1.02 0 0 Z " fill="#113050" transform="translate(109,369)"/>
<path d="M0 0 C0.66 1.32 1.32 2.64 2 4 C0.68 4.99 -0.64 5.98 -2 7 C-2.66 6.34 -3.32 5.68 -4 5 C-2.68 3.35 -1.36 1.7 0 0 Z " fill="#3A6C87" transform="translate(316,320)"/>
<path d="M0 0 C0.99 0.495 0.99 0.495 2 1 C2 1.66 2 2.32 2 3 C2.99 3 3.98 3 5 3 C5.66 4.32 6.32 5.64 7 7 C6.01 7 5.02 7 4 7 C0 2.65714286 0 2.65714286 0 0 Z " fill="#2F465C" transform="translate(211,288)"/>
<path d="M0 0 C0.66 1.32 1.32 2.64 2 4 C0.35 5.65 -1.3 7.3 -3 9 C-2.01 6.03 -1.02 3.06 0 0 Z " fill="#E1F1F5" transform="translate(351,319)"/>
<path d="M0 0 C2 3 2 3 1.625 5.6875 C1.41875 6.450625 1.2125 7.21375 1 8 C0.34 8 -0.32 8 -1 8 C-1.04241723 5.66705225 -1.04092937 3.33297433 -1 1 C-0.67 0.67 -0.34 0.34 0 0 Z " fill="#223F5A" transform="translate(414,311)"/>
<path d="M0 0 C0.66 0 1.32 0 2 0 C1.60196439 2.88575819 1.20990931 3.82189513 -1.0625 5.75 C-1.701875 6.1625 -2.34125 6.575 -3 7 C-3.33 5.68 -3.66 4.36 -4 3 C-3.01 3 -2.02 3 -1 3 C-0.67 2.01 -0.34 1.02 0 0 Z " fill="#132E48" transform="translate(335,225)"/>
<path d="M0 0 C2.31 0.33 4.62 0.66 7 1 C3.77208445 3.1519437 2.71599191 3.20086443 -1 3 C-0.67 2.01 -0.34 1.02 0 0 Z " fill="#102F4C" transform="translate(384,128)"/>
</svg>
